<?xml version="1.0" encoding="UTF-8"?>
<svg id="Capa_1" xmlns="http://www.w3.org/2000/svg" version="1.1" viewBox="0 0 189.3 61.3">
  <!-- Generator: Adobe Illustrator 29.1.0, SVG Export Plug-In . SVG Version: 2.1.0 Build 142)  -->
  <path d="M28.1,5.6c6-.3,11.9,1.4,16.8,4.9s2.2,1.6,2.4,2.1c.4.9-.5,1.8-1.4,1.4C31.8,1.2,8.7,9,5.5,27.9c-3.6,21.7,21,36.7,38.7,23.4.5-.4,1.6-1.5,2-1.6,1-.4,1.9.7,1.3,1.6s-4,3.2-5.3,3.9C23.3,65.5.8,50.1,3.4,28.8,4.9,16.2,15.4,6.3,28.1,5.6Z" fill="#df6d10"/>
  <path d="M28.5,9.9c2.7-.2,6.7.3,9.2,1.4s.7,2-.3,2-2.2-.7-3-.9c-9.4-2.2-19.2,2.7-22.8,11.6-6.3,15.3,7.1,31,23.2,27.1s1.8-.7,2.3-.7c1.1,0,1.6,1.5.3,2.1-5.7,2.6-14,1.3-19.2-1.9C-.2,39.5,7.1,11.1,28.5,9.9Z" fill="#e98f42"/>
  <path d="M28.3,14.1c.8,0,1.6.2,1.5,1.1s-1.7,1-2.6,1.2c-15.4,3-17.8,23.4-3.8,29.6,2.1.9,3.6.8,5.6,1.4s1,1.9-.1,2c-2.7.2-7.3-1.7-9.4-3.3-8.9-6.7-9.7-19.5-1.6-27.2s6.8-4.5,10.4-4.7Z" fill="#f3af72"/>
  <path d="M29.4,27.3c5.7-.5,6.7,7.7,1.4,8.8s-7.4-8.2-1.4-8.8Z" fill="#df6c0e"/>
  <g>
    <path d="M174.5,24.5l8.8,10.4c.2,0-.2.4-.2.4h-4.4c0,0-.5-.3-.6-.5l-8.8-10.3h-7.4v10.5s-.3.3-.3.3h-3.3s-.3-.3-.3-.3v-14.3h19.7c0,0,.8-.4.9-.5,1.1-1,1.2-4.8.2-5.8s-1.1-.7-1.5-.7h-19.4v-3.8h19.6c2.6,0,5.5,2.8,5.7,5.4s0,6.6-2.7,8.4-2,1-2.3,1h-3.9Z" fill="#fff"/>
    <path d="M116,9.8c2.8,3.2,5.3,6.7,8.1,9.8.2-.5.6-1,.9-1.4,2.3-2.8,4.6-5.7,7-8.5h4.5l-10,12.8,9.9,12.3c.2,0-.2.4-.2.4h-4.2c0,0-.3-.2-.4-.2l-7.6-9.4-8,9.6h-4.5l9.8-12.6-10-12.8h4.6Z" fill="#fff"/>
    <path d="M59.6,20.7v8.5c0,.8,1.4,2.2,2.3,2.3,4.2-.3,8.8.4,12.9,0s2.2-1.2,2.9-2.7h3.3c.4,0,0,1.9-.1,2.2-.7,2.1-2.9,3.9-5.1,4.2-4.7.4-10.2-.3-15,0-2.6-.6-4.9-3.3-4.9-6v-8s.3-.3.3-.3h3.5Z" fill="#fff"/>
    <polygon points="97.9 35.3 93.9 35.3 83.1 9.8 87 9.8 97.9 35.3" fill="#fff"/>
    <path d="M77.5,16.4s0-.7-.2-1c-.4-1-1.1-1.4-2.1-1.7-4.1.2-8.5-.4-12.5,0s-2.1.4-2.6,1.4-.3,1.3-.4,1.3h-3.5c-.4,0,0-1.5,0-1.8.7-2.7,3.2-4.5,6-4.7s9.3-.2,12.8,0,4.9,1.4,5.9,3.9.9,2.6.3,2.6-3.4.1-3.5,0Z" fill="#fff"/>
    <path d="M108.2,9.8l-8.6,20.6c-.4,0-.3-.2-.4-.4-.4-.8-1.5-3.2-1.7-4s-.1-.4,0-.6l6.3-14.8.5-.8h3.9Z" fill="#fff"/>
    <rect x="140.1" y="20.7" width="14.6" height="3.6" fill="#fff"/>
    <path d="M131,39.9c.3,0,.6,0,.8,0,.5.1,2.6,4.8,2.9,5.6.2,0,.3-.2.4-.3,1-1.5,1.6-3.6,2.6-5.1.2-.3,1.2-.1,1.2,0v6.4h-.9v-5.3l-2.7,5.2h-.7c0,0-2.8-5.2-2.8-5.2v5.3s-.7,0-.7,0v-6.6Z" fill="#fff"/>
    <path d="M182.2,45.4v-5.2c0-.3.9-.3.9,0v6.2c0,.3-1.1.3-1.3,0-1.4-1.5-2.5-3.5-3.9-4.9s0-.3-.4-.2v5.1c0,.2-.7.3-.9.2v-6.4c0-.2,1-.3,1.2,0l4.5,5.3Z" fill="#fff"/>
    <path d="M149.2,49.9c.1-.3.9-.3,1.2,0l4.4,5.3h.3c.1,0-.2-.4-.2-.5v-4.7c0-.2.7-.3.9-.2v6.5c-.3,0-.7,0-1,0-.6-.1-3.7-4.8-4.7-5.4v5.5h-.9v-6.3Z" fill="#fff"/>
    <path d="M77.1,56.2c-.6,0-.9,0-.9-.6-3.8,2.1-7.1-.7-5.9-3.9,1-2.8,5.9-3,6.8-.2-1.1.2-.8-.2-1.4-.7-1.2-1.1-3.7-.8-4.4.5s-.6,3.8,1.6,4.2,3.5-.7,3.2-2.3h-2.5s0-.6,0-.6h3.2s.3.2.3.2v3.2Z" fill="#fff"/>
    <path d="M166.6,49.7c1.8.3,2.1,2.3.6,3.2,1.6.4,1.7,2.2.4,3s-1.3.5-1.6.5h-2.9s-.3-.2-.3-.2v-6.4c1.1.1,2.7-.2,3.7,0ZM166.4,50.3c-.8-.1-2,0-2.8,0v2.2h3s.6-.4.6-.4c.4-.6,0-1.6-.8-1.8ZM163.6,55.7c1.3,0,4.2.2,4.2-1.4s-.8-1.4-1.5-1.4h-2.6v2.7Z" fill="#fff"/>
    <path d="M84,40.1c.1-.3,1-.3,1.2,0l4.5,5.3v-5.4c0-.2.5-.3.7-.2v6.6c-.3,0-.5,0-.8,0-.8-.2-3.8-4.9-4.9-5.6v5.6s-.7,0-.7,0v-6.4Z" fill="#fff"/>
    <path d="M68.8,39.9c1.8.2,3,1.6,1.8,2.9s-.6.3-.6.4c0,.3.9.7.9,1.1v2.2s-.7,0-.7,0c-.1,0,.2-2.2-.4-2.7s-2.6-.3-3.4-.3v3c-.2,0-.9,0-.9-.2v-6.2s.3-.2.3-.2c.9,0,2.2,0,3.1,0ZM66.2,43h3c.9,0,1.3-1.4.8-2s-3.8-.6-3.8-.3v2.2Z" fill="#fff"/>
    <path d="M57.6,49.7h3.6c0,0,.8.2.9.3,2.6.9,2.8,4.2.8,5.6-.4.3-1.8.8-2.3.8h-2.7s-.3-.2-.3-.2v-6.4ZM58.4,55.7c3.3.4,6.2-1.3,4.8-4s-1.4-1.4-2-1.4h-2.8v5.5Z" fill="#fff"/>
    <path d="M124.9,39.9c2.5.2,3.1,2.2,1.2,3.4,1.5.4,1,2.2,1.1,3.2-1.8.1-.2-2-1.4-2.7s-.7-.3-.7-.3h-2.6v3s-.7,0-.7,0v-6.4s.3-.2.3-.2c.9,0,2.1,0,2.9,0ZM122.5,43h2.8c.4,0,1-.5,1.1-.9.5-1.8-2.4-1.6-3.9-1.6v2.4Z" fill="#fff"/>
    <path d="M120.2,49.6c5.6-.4,5.5,7.7-.7,6.7-3.8-.6-3.8-6.3.7-6.7ZM120.1,50.2c-3.6.4-3.3,6.1,1.2,5.6,3.3-.4,3-6.1-1.2-5.6Z" fill="#fff"/>
    <path d="M168.7,40c5.8-.8,5.9,6.4,1,6.7s-5.4-6.1-1-6.7ZM168.7,40.5c-2.9.5-2.9,5,.2,5.5,4.6.7,4.8-6.3-.2-5.5Z" fill="#fff"/>
    <path d="M113.7,40c3.4-.5,5,1.6,4.6,4s-2.8,3.2-5.2,2.4-2.8-6,.6-6.4ZM113.9,40.5c-2.9.4-3,4.9,0,5.5,4.6.9,5.1-6.2,0-5.5Z" fill="#fff"/>
    <path d="M146.9,49.7s0,.6,0,.6h-4.4v2.2c.6,0,3.9,0,4.2.1s0,.6-.3.6h-3.9v2.4h4.4s0,.6,0,.6h-5.3v-6.3s.3-.2.3-.2c.7,0,4.8-.1,5,0Z" fill="#fff"/>
    <path d="M183.5,49.7s0,.6,0,.6h-4.4v2.2c.6,0,3.9,0,4.2.1s0,.6-.3.6h-3.9v2.4h4.4s0,.6,0,.6h-5.3v-6.3s.3-.2.3-.2c.7,0,4.8-.1,5,0Z" fill="#fff"/>
    <path d="M99.3,41.7c-.9.2-.7-.2-1.1-.6-.9-.9-3.4-.7-3.3.6s3.8.9,4.5,2.5c1.4,3-5.6,3.5-5.6.6,1-.2.7.5,1.3.9,1.1.8,4.5.4,3.5-1.3s-4.6-.7-4.6-2.7,5.4-2.3,5.3,0Z" fill="#fff"/>
    <path d="M114.5,51.4c-.4.4-1-.8-1.3-.9-1.3-.8-3.9,0-2.9,1.3s5,.3,4.4,3.1-5.8,1.8-5.6-.5c1-.2.8.7,1.7,1.1s3.3.2,3.3-1c0-1.9-4.8-1-4.7-3.3s3.7-2.1,4.9-.9.6.9.4,1.1Z" fill="#fff"/>
    <path d="M131.7,51.4c-.4.4-1-.8-1.3-.9-1.3-.8-3.9,0-2.9,1.3s5,.3,4.4,3.1c-.4,2-5.8,1.8-5.6-.5,1-.2.8.7,1.7,1.1s3.3.2,3.3-1c0-1.9-4.8-1-4.7-3.3s3.7-2.1,4.9-.9.6.9.4,1.1Z" fill="#fff"/>
    <path d="M93.1,49.7l2.9,6.6c-1.3.2-1.3-1.9-1.8-2.2s-3.2-.1-3.3,0c-.2.2-.9,2.8-1.6,2.2s2.6-5.7,2.7-6.6h1.1ZM91.1,53.4h2.9c-.3-.3-1.2-2.8-1.4-2.9-.3,0-.3.1-.4.3-.5.8-.7,1.8-1.2,2.6Z" fill="#fff"/>
    <path d="M148.7,46.5s-.6,0-.7,0-.8-1.8-1-2.1c-1,0-2.2-.1-3.2,0s-.6,2.5-1.9,2.2l3-6.6c.7-.1.8.2,1,.6.7,1.2,2.1,4,2.6,5.3s.2.6.1.7ZM146.7,43.8l-1.3-3c-.8.8-1.1,2-1.5,3h2.7Z" fill="#fff"/>
    <path d="M158,41.9c-.4.3-1-.7-1.3-.9-.6-.5-1.6-.6-2.4-.5-3,.5-3.1,5.8,1.2,5.4s1.3-1.3,2.5-1.2c-.3,2-3.9,2.4-5.6,1.1-2.7-2.2-.3-7.2,4.1-5.7s2,1.4,1.5,1.8Z" fill="#fff"/>
    <path d="M81,46.5c-.2,0-.8,0-.9,0s-.6-1.8-.9-2-2.9,0-3.5,0c-.4.2-.5,2.5-1.7,2.1l2.8-6.2c.2-.3.6-.5,1-.3l3.2,6.5ZM78.8,43.8l-1.4-3.2-1.4,3.2h2.7Z" fill="#fff"/>
    <path d="M60,40.7v5.9c-.2,0-.9,0-.9-.2v-5.7h-2.5v-.7h5.9c.2,0,.3.3.3.5-.2.4-2.2.1-2.7.2Z" fill="#fff"/>
    <path d="M139.8,49.7s0,.6,0,.6h-2.7v5.8c0,.3-.9.3-.9,0v-5.8h-2.7s0-.6,0-.6c.8,0,6.2-.2,6.4,0Z" fill="#fff"/>
    <path d="M89,49.7s0,.6,0,.6h-2.7v5.8c0,.3-.9.3-.9,0v-5.8c-.5,0-2.6.2-2.7-.2s.2-.4.3-.4c.8,0,5.9-.2,6.1,0Z" fill="#fff"/>
    <path d="M108.1,40.1v.4h-4.2v2.4h4v.4h-4v2.9c0,.2-.5.3-.7.2v-6.5h4.9Z" fill="#fff"/>
    <path d="M171.8,49.7v5.9h4.1c.2,0,.3.4.3.6h-5.1v-6.5s.6,0,.7,0Z" fill="#fff"/>
    <path d="M99.2,49.7v5.9h4.1c.3,0,.3.6,0,.6h-4.8v-6.5s.6,0,.7,0Z" fill="#fff"/>
    <path d="M159.6,49.7v6.4c0,.2-.7.2-.7,0v-6.4s.6,0,.7,0Z" fill="#fff"/>
    <path d="M162.2,40.1v6.5c-.2,0-.7,0-.7-.2v-6.3s.6,0,.7,0Z" fill="#fff"/>
    <path d="M67.7,56.2c-.1,0-.7,0-.7,0v-6.5c.2,0,.7,0,.7.2v6.3Z" fill="#fff"/>
    <path d="M80.6,49.7v6.5s-.7,0-.7,0v-6.3c0-.2.5-.3.7-.2Z" fill="#fff"/>
    <path d="M171.6,37.6c-.2.5-1,1.2-1.4,1.4s-.6.5-1.2.4c-.3-.2,1.8-2.3,2.5-1.8Z" fill="#fff"/>
  </g>
</svg>