<?xml version="1.0" encoding="UTF-8"?>
<svg id="Capa_1" xmlns="http://www.w3.org/2000/svg" version="1.1" viewBox="0 0 194.1 96.7">
  <!-- Generator: Adobe Illustrator 29.1.0, SVG Export Plug-In . SVG Version: 2.1.0 Build 142)  -->
  <path d="M28.1.9c6-.3,11.9,1.4,16.8,4.9s2.2,1.6,2.4,2.1c.4.9-.5,1.8-1.4,1.4C31.8-3.6,8.7,4.3,5.5,23.1c-3.6,21.7,21,36.7,38.7,23.4.5-.4,1.6-1.5,2-1.6,1-.4,1.9.7,1.3,1.6s-4,3.2-5.3,3.9C23.3,60.7.8,45.4,3.4,24,4.9,11.4,15.4,1.5,28.1.9Z" fill="#df6d10"/>
  <path d="M28.5,5.2c2.7-.2,6.7.3,9.2,1.4s.7,2-.3,2-2.2-.7-3-.9c-9.4-2.2-19.2,2.7-22.8,11.6-6.3,15.3,7.1,31,23.2,27.1s1.8-.7,2.3-.7c1.1,0,1.6,1.5.3,2.1-5.7,2.6-14,1.3-19.2-1.9C-.2,34.7,7.1,6.4,28.5,5.2Z" fill="#e98f42"/>
  <path d="M28.3,9.3c.8,0,1.6.2,1.5,1.1s-1.7,1-2.6,1.2c-15.4,3-17.8,23.4-3.8,29.6,2.1.9,3.6.8,5.6,1.4s1,1.9-.1,2c-2.7.2-7.3-1.7-9.4-3.3-8.9-6.7-9.7-19.5-1.6-27.2s6.8-4.5,10.4-4.7Z" fill="#f3af72"/>
  <path d="M29.4,22.5c5.7-.5,6.7,7.7,1.4,8.8s-7.4-8.2-1.4-8.8Z" fill="#df6c0e"/>
  <path d="M179.6,29.6l9.5,11.1c.2.1-.2.4-.2.4h-4.7c-.1,0-.6-.4-.7-.5l-9.5-11h-7.9v11.2s-.3.3-.3.3h-3.5s-.3-.3-.3-.3v-15.3h21.2c0,0,.9-.5,1-.6,1.1-1.1,1.3-5.1.2-6.3s-1.2-.8-1.6-.8h-20.8v-4.1h21c2.7,0,5.9,3.1,6.2,5.8s0,7.1-3,9-2.2,1.1-2.4,1.1h-4.2Z" fill="#fff"/>
  <path d="M116.8,13.7c3,3.5,5.6,7.2,8.7,10.6.2-.5.6-1,1-1.5,2.5-3,4.9-6.2,7.5-9.1h4.8l-10.8,13.8,10.7,13.2c.2.1-.2.4-.2.4h-4.5c0,0-.3-.2-.4-.3l-8.2-10.1-8.6,10.4h-4.8l10.5-13.6-10.7-13.8h5Z" fill="#fff"/>
  <path d="M56.3,25.5v9.1c0,.9,1.5,2.4,2.5,2.4,4.5-.3,9.5.4,13.9,0s2.4-1.2,3.1-2.9h3.5c.5,0,0,2-.2,2.4-.7,2.3-3.1,4.2-5.5,4.5-5.1.5-11-.3-16.1,0-2.8-.7-5.3-3.6-5.3-6.5v-8.6s.3-.3.3-.3h3.8Z" fill="#fff"/>
  <polygon points="97.3 41.1 93.1 41.1 81.5 13.7 85.7 13.7 97.3 41.1" fill="#fff"/>
  <path d="M75.4,20.8s0-.7-.2-1.1c-.5-1.1-1.2-1.5-2.3-1.8-4.4.2-9.1-.4-13.4,0s-2.2.4-2.8,1.5-.3,1.4-.4,1.4h-3.8c-.5,0-.1-1.6,0-2,.8-2.9,3.5-4.8,6.5-5.1s9.9-.3,13.7,0,5.3,1.5,6.3,4.2.9,2.8.3,2.8-3.7.1-3.8,0Z" fill="#fff"/>
  <path d="M108.5,13.7l-9.3,22.1c-.4,0-.3-.2-.4-.4-.4-.9-1.6-3.5-1.8-4.3s-.1-.4,0-.6l6.8-15.9.5-.8h4.2Z" fill="#fff"/>
  <rect x="142.7" y="25.5" width="15.6" height="3.9" fill="#fff"/>
  <path d="M112.6,60.5c.4,0,.8,0,1.2,0,.8.3,3.7,9.3,4.2,10.8.3,0,.4-.4.6-.6,1.5-2.9,2.3-6.9,3.8-9.9.3-.5,1.7-.3,1.7.1v12.3h-1.3v-10.2l-4,10.1-1,.2-4.1-10.3v10.2c0,0-1.1,0-1.1,0v-12.7Z" fill="#fff"/>
  <path d="M187.4,71.1v-10.1c0-.5,1.3-.5,1.3,0v11.9c0,.5-1.6.6-1.9,0-2-2.9-3.7-6.7-5.8-9.5s0-.5-.6-.4v9.8c0,.4-1,.5-1.3.4v-12.3c0-.4,1.4-.7,1.7-.1l6.5,10.2Z" fill="#fff"/>
  <path d="M139.2,79.8c.2-.5,1.4-.6,1.8-.2l6.4,10.3.4.3c.2-.5-.3-1-.3-1.2v-9.1c0-.4,1-.5,1.3-.4v12.5c-.5,0-1,0-1.4,0-.9-.3-5.4-9.3-6.8-10.5v10.5h-1.3v-12Z" fill="#fff"/>
  <path d="M33.7,91.8c-.9.1-1.4,0-1.3-1.1-5.6,4.1-10.3-1.3-8.6-7.4,1.5-5.3,8.6-5.8,9.9-.3-1.6.3-1.2-.4-2-1.4-1.7-2.1-5.4-1.5-6.5,1.1s-.8,7.3,2.4,8.2,5.1-1.4,4.7-4.5h-3.7c0,0,0-1.1,0-1.1h4.7s.4.4.4.4v6.2Z" fill="#fff"/>
  <path d="M164.6,79.4c2.7.6,3,4.5.9,6.1,2.4.8,2.5,4.2.5,5.7s-1.9,1-2.3,1h-4.3s-.4-.4-.4-.4v-12.3c1.6.2,4-.3,5.5,0ZM164.4,80.5c-1.1-.2-2.9.2-4.1,0v4.2h4.4c0,0,.9-.7.9-.7.7-1.1,0-3.1-1.2-3.4ZM160.2,91c2,.1,6.1.3,6.1-2.6s-1.1-2.6-2.2-2.6h-3.9v5.3Z" fill="#fff"/>
  <path d="M43.8,61c.2-.7,1.4-.5,1.7.1l6.5,10.3v-10.4c0-.3.8-.5,1.1-.4v12.7c-.4,0-.8,0-1.1,0-1.1-.4-5.6-9.5-7.1-10.7v10.8c0,0-1.1,0-1.1,0v-12.3Z" fill="#fff"/>
  <path d="M21.6,60.5c2.6.4,4.4,3.2,2.7,5.5-.3.4-.9.5-.9.7,0,.5,1.3,1.4,1.3,2.2v4.3c0,0-1,0-1.1,0-.2-.2.3-4.2-.6-5.2s-3.8-.6-5-.6v5.8c-.3,0-1.3,0-1.3-.4v-11.9s.4-.4.4-.4c1.4,0,3.3-.2,4.5,0ZM17.7,66.4h4.4c1.3,0,2-2.7,1.2-3.8s-5.6-1.2-5.6-.5v4.3Z" fill="#fff"/>
  <path d="M5.2,79.4h5.2c0,0,1.2.4,1.4.5,3.7,1.7,4.1,8.1,1.2,10.7-.6.6-2.6,1.5-3.3,1.5h-4s-.4-.4-.4-.4v-12.3ZM6.3,91c4.8.9,9-2.4,7.1-7.8-.3-.9-2-2.8-2.9-2.8h-4.1v10.5Z" fill="#fff"/>
  <path d="M103.6,60.5c3.7.5,4.5,4.2,1.7,6.6,2.2.8,1.5,4.2,1.6,6.1-2.7.2-.3-3.8-2-5.3-.1-.1-1-.5-1.1-.5h-3.9v5.8c0,0-1.1,0-1.1,0v-12.3s.4-.4.4-.4c1.3,0,3-.2,4.3,0ZM100,66.4h4.1c.6,0,1.5-1,1.6-1.6.8-3.5-3.6-3.1-5.7-3.1v4.7Z" fill="#fff"/>
  <path d="M96.8,79.2c8.2-.8,8,14.8-1,12.8-5.5-1.2-5.5-12.2,1-12.8ZM96.5,80.3c-5.2.9-4.8,11.8,1.8,10.7,4.8-.8,4.4-11.7-1.8-10.7Z" fill="#fff"/>
  <path d="M167.6,60.6c8.4-1.5,8.7,12.4,1.5,12.9s-7.9-11.8-1.5-12.9ZM167.6,61.7c-4.3.9-4.2,9.7.3,10.6,6.8,1.4,7-12.2-.3-10.6Z" fill="#fff"/>
  <path d="M87.2,60.6c5-.9,7.3,3.1,6.7,7.8s-4.1,6.1-7.6,4.6c-4.8-2.1-4.1-11.5.9-12.4ZM87.4,61.7c-4.2.8-4.4,9.4.1,10.5,6.8,1.7,7.4-12-.1-10.5Z" fill="#fff"/>
  <path d="M135.7,79.4s0,1.1,0,1.1h-6.4v4.2c.9,0,5.7-.1,6.1.3s-.1,1.1-.4,1.1h-5.7v4.7h6.4c0,0,0,1.1,0,1.1h-7.7v-12s.4-.4.4-.4c1,0,7.1-.3,7.3,0Z" fill="#fff"/>
  <path d="M189.3,79.4s0,1.1,0,1.1h-6.4v4.2c.9,0,5.7-.1,6.1.3s-.1,1.1-.4,1.1h-5.7v4.7h6.4c0,0,0,1.1,0,1.1h-7.7v-12s.4-.4.4-.4c1,0,7.1-.3,7.3,0Z" fill="#fff"/>
  <path d="M66.2,63.9c-1.4.3-1-.5-1.6-1.3-1.3-1.7-4.9-1.3-4.8,1.1,0,2.9,5.5,1.8,6.6,4.8,2.1,5.9-8.2,6.8-8.2,1.2,1.5-.4,1,.9,1.8,1.8,1.6,1.6,6.6.8,5.1-2.6s-6.7-1.3-6.7-5.2,7.9-4.5,7.7.1Z" fill="#fff"/>
  <path d="M88.3,82.7c-.6.7-1.4-1.5-1.9-1.8-2-1.5-5.8,0-4.3,2.5s7.3.6,6.4,6.1-8.5,3.5-8.2-1c1.5-.4,1.2,1.3,2.4,2.1s4.8.4,4.8-1.9c0-3.8-7.1-1.9-6.9-6.3.1-3.4,5.3-4.1,7.2-1.7.3.4.8,1.8.5,2.1Z" fill="#fff"/>
  <path d="M113.6,82.7c-.6.7-1.4-1.5-1.9-1.8-2-1.5-5.8,0-4.3,2.5,1.2,2.2,7.3.6,6.4,6.1-.6,3.9-8.5,3.5-8.2-1,1.5-.4,1.2,1.3,2.4,2.1,1.7,1,4.8.4,4.8-1.9,0-3.8-7.1-1.9-6.9-6.3.1-3.4,5.3-4.1,7.2-1.7s.8,1.8.5,2.1Z" fill="#fff"/>
  <path d="M57.1,79.4l4.3,12.7c-1.9.3-1.8-3.7-2.7-4.3s-4.6-.2-4.8,0c-.3.4-1.3,5.3-2.4,4.3s3.8-11,4-12.7h1.5ZM54.2,86.6h4.3c-.4-.7-1.7-5.5-2-5.5-.5-.2-.4.3-.5.6-.7,1.6-1,3.4-1.7,5Z" fill="#fff"/>
  <path d="M138.4,73.3s-.9,0-1,0-1.2-3.5-1.4-4.1c-1.4,0-3.2-.2-4.6,0s-.9,4.9-2.8,4.2l4.4-12.7c1-.3,1.1.4,1.5,1.2,1.1,2.3,3.1,7.8,3.8,10.2s.3,1.2.2,1.3ZM135.5,68l-1.9-5.8c-1.2,1.6-1.7,3.9-2.1,5.8h4Z" fill="#fff"/>
  <path d="M152,64.4c-.6.7-1.5-1.4-1.9-1.8-.9-.9-2.3-1.2-3.5-.9-4.3.9-4.5,11.3,1.8,10.5,2.2-.3,1.9-2.5,3.6-2.4-.4,3.9-5.7,4.7-8.1,2.1-3.9-4.3-.5-14,6-10.9.8.4,2.9,2.6,2.1,3.5Z" fill="#fff"/>
  <path d="M39.3,73.3c-.3,0-1.1.1-1.3,0s-.9-3.4-1.3-3.9-4.2,0-5.1-.1c-.6.4-.7,4.9-2.4,4.1l4.1-12c.3-.6.9-1,1.4-.5l4.6,12.5ZM36.1,68l-2-6.1-2,6.1h4Z" fill="#fff"/>
  <path d="M8.7,61.9v11.4c-.3,0-1.3,0-1.3-.4v-10.9h-3.7v-1.4h8.7c.2,0,.5.6.4,1-.2.8-3.2.3-4,.4Z" fill="#fff"/>
  <path d="M125.3,79.4s0,1.1,0,1.1h-4v11.2c0,.5-1.3.5-1.3,0v-11.2h-4c0,0,0-1.1,0-1.1,1.2,0,9-.3,9.3,0Z" fill="#fff"/>
  <path d="M51,79.4s0,1.1,0,1.1h-4v11.2c0,.5-1.3.5-1.3,0v-11.2c-.8-.1-3.8.3-4-.4s.3-.7.4-.7c1.2,0,8.6-.3,8.9,0Z" fill="#fff"/>
  <path d="M79,60.8v.8h-6.1v4.7h5.9v.8h-5.9v5.7c0,.3-.8.5-1.1.4v-12.5h7.2Z" fill="#fff"/>
  <path d="M172.2,79.4v11.4h6c.3,0,.5.8.4,1.1h-7.5v-12.5c0,0,.9,0,1.1,0Z" fill="#fff"/>
  <path d="M65.9,79.4v11.4h6c.5,0,.5,1.1,0,1.1h-7.1v-12.5c0,0,.9,0,1.1,0Z" fill="#fff"/>
  <path d="M154.4,79.4v12.3c0,.5-1.1.5-1.1,0v-12.3c0,0,.9,0,1.1,0Z" fill="#fff"/>
  <path d="M158.1,60.8v12.5c-.3.1-1.1-.1-1.1-.4v-12c0,0,.9,0,1.1,0Z" fill="#fff"/>
  <path d="M19.9,91.8c-.2,0-1.1,0-1.1,0v-12.5c.3-.1,1.1.1,1.1.4v12Z" fill="#fff"/>
  <path d="M38.8,79.4v12.5c0,0-1.1,0-1.1,0v-12c0-.3.8-.5,1.1-.4Z" fill="#fff"/>
  <path d="M172.1,54.9c-.2.6-1.1,1.6-1.6,1.9s-.7.7-1.3.5c-.3-.3,2.1-3.1,2.9-2.4Z" fill="#fff"/>
</svg>