<?xml version="1.0" encoding="UTF-8"?>
<svg id="Capa_1" xmlns="http://www.w3.org/2000/svg" version="1.1" viewBox="0 0 1000 1000">
  <!-- Generator: Adobe Illustrator 29.1.0, SVG Export Plug-In . SVG Version: 2.1.0 Build 142)  -->
  <path d="M152.3,423.7c-1.9,2,3.4,4.4,3.9,7.6.9,5.7.7,25.8,0,31.7-1.3,10.9-18.8,9.5-21.1,2,.5-9.3-1.9-23.3-.1-32,1.1-5.5,6.1-6,6.8-7.1s.2-3.8,1.1-5.6c3.5-7.5,14.4-6.1,21.3-6.1,0-8.3-1.3-14,4.4-20.7,7.7-9.2,22.9-10.3,34.1-11.1,11.2-.8,6.7.5,8.6-.1s1-3.9,2.1-5.7c1.8-3.3,10.5-1.9,14-2.1,30.1-1.9,61.1-1,91.3,0,6.1.2,16.7-1.1,22.1.1,5.4,1.3,5.2,4.3,4.5,7.8,22.1,0,52.5,1.5,48.4,31.8,6.9,1,17.5-.6,21.4,6.9,1,1.8.6,3.7,1.3,5,1,2,5.5,2.9,6.6,7.8,1,4.6.8,24.2.2,29.2-1,8.1-8.9,8.3-15.5,7.5-3.4-.4-5.5-2.5-6-5.9-.5-3.8-.4-32.1.7-34.4s4-3.3,3.4-5.3c-.6-2.1-9.7-.8-11.9-1.2v184.6c0,4.9-9.8,15.1-15.1,15.8-65.2,3.5-131-.8-196.4.4-6.8,0-17.9-6.4-17.9-13.9v-186.9c-1.8.3-11.5-.4-11.9,0h0ZM173.1,537.8l41.5,19.2c7.3,5.6,15.4,29.5,21.8,31.4l81.4.4c1.5.1,2.6-.3,3.8-1,4.4-2.2,12.3-20,16-25.2,8.4-12,31.8-16.2,44.6-23.7,12.8-7.5,1.8-1.2,2.2-2.5.2-21.7-.5-43-.5-64.8s2.7-41.2.9-61.1c-1.2-12.9-9.2-15.9-20.5-17.6-53.1-8.2-117.3-8.1-170.3,0-10.6,1.6-20.1,3.7-21.2,16.1v128.9c.1,0,.2,0,.2,0ZM175.3,559c-.7,2.7,0,13.7,0,17.4s4,5.7,6.7,6c9.8,1.1,21.7-.9,31.8,0,1.8-.1,2-1.2,2.1-2.8.1-3.2-5.2-13.4-8.2-14.9-3-1.5-25-7.5-28.1-7.8-1.5,0-3.8.4-4.2,1.9h0ZM381.8,576.5c.7-4.3,0-12.6,0-17.4s-2.4-2.4-3.5-2c-8.3,3.2-21.7,4.1-29.3,8.1-2.7,1.5-8.5,12-8.3,14.3s1.3,2.9,2.6,2.9c10-.9,21.9,1.2,31.8,0,3.2-.4,6.1-2.8,6.7-6h0ZM184.3,608.4c2.6,2.4,13.1,2.5,16.3,1.3,4.5-1.8,6.4-9.7,1.6-12.3-4.8-2.6-15.4-2.3-18.3-1.3-3.7,1.3-2,10,.5,12.3h0ZM359.3,596.1c-8.8,1.5-9,11.5-2.1,13.6,2.7.8,9.4.9,12.1.4,5.9-1,9.3-13.3,1.7-14.3-7.6-1-9.1-.2-11.7.2ZM307.9,599.1h-58.7v11.5c0,1,2.5,6.1,4.4,5.9,15.5-1.1,33.3,1.6,48.5,0,3.1-.3,5.9-3,5.9-6v-11.5h0Z" fill="#fff"/>
  <path d="M215,630.1c.4,3.8-2.7,8.1-6.3,9.2-2.7.8-20.4.8-23.1,0s-6.8-5.4-6.3-9.2h35.7Z" fill="#fff"/>
  <path d="M342,630.1h34.5c3.5,0-1.6,8-5.9,9.2-3.3.8-19.1.8-22.2,0-3.7-1-7-5.2-6.4-9.2h0Z" fill="#fff"/>
  <path d="M365.7,424.6c6.4,0,10.6,4.3,11.2,10.5,1.6,14.4-.2,33.4,0,48.5,0,8.7,1.8,18.1.8,27-.8,7.2-5.5,10-12.3,10.7-4.9.5-21.9.8-26.2,0-3.3-.7-5.7-7-9.5-7.2h-100.1c-3.3,0-8,7.1-10.4,7.8-2.4.7-11,.3-14.2.2s-12-.4-15.5-1.2c-5.3-1-8.2-4.2-8.7-9.5-2.3-23.8,1.8-51.3,0-75.4.6-5.6,4.7-10.8,10.7-10.7,58,.6,116.2-.4,174.2-.6h0ZM261,433.2h-13.9c-15.1,16.1-30.3,32.1-45.7,48-2,2.1-5,5.5-7.2,7.1s-1,1.6-2.4,1.2v-12.3c0-2.9,36.1-36.1,40.1-41.7l1.2-2.4h-42.5c-.8,0-3.2,3.9-2.8,5.2v71.3c1.1,1.9,3.1,3.3,5.2,3.7,7-.8,14.6,1.6,21.4.9,5.8-.6,7.4-7.8,13.4-8.8l102.5-.8c4.8-.1,10.9,8.4,14.2,8.8,5.8-.9,21.9,2.4,24.7-4.1.2-18.3,1.1-36.9.4-55.2,0-1.8-.7-3.6-.9-5.5-.4-8.5,3.3-16-8.3-16.3-3,0-5.3.8-7.9.9-25.9.4-51.8-.5-77.7.1l-43,43.5c-4.6,2.7-9.5-2.1-6.7-6.7l35.6-37h0Z" fill="#fff"/>
  <path d="M229.1,399.2c4.8-1.4,13.7.6,18.8.7,27,.5,54.3-1,81.2.5,4.6,2.1,3.2,12.6-2.5,12.9h-96.1c-6.7-.4-6.9-12.6-1.4-14.2h0Z" fill="#fff"/>
  <path d="M329.2,548.2h-100.3c-6-.5-4.3-11.1,2.4-10.2h94.5c5.2.6,5.1,6.2,3.4,10.2Z" fill="#fff"/>
  <path d="M325.4,557.1c.4.4-1.6,7.5-3.5,7.2h-85.8c-3.7.5-5.9-4.1-6.7-7.2h96.1Z" fill="#fff"/>
  <path d="M318.2,572.9c-1.1,1.8-2.2,5.2-4.4,5.5h-72.3c-1.7-.1-3.3-4.1-4.4-5.5h81Z" fill="#fff"/>
  <path d="M197.8,412.4c-5.9-5.5,4.1-13.7,8.6-7.4,3.8,5.5-4.2,11.5-8.6,7.4Z" fill="#fff"/>
  <path d="M551.7,449.8c4.5,4.4,2.3,22.8,2.5,29.9,0,2.6,1.1,5,1.2,7.6.5,17.7,0,35.6-.5,53.4-1.4,3.1-3.7,5.1-6.9,6.3-9.2,3.7-39.5,6.8-44.8,12.3-3.1,3.2-7.8,20.4-10.2,26-2.7,6.3-12.9,24.2-12.2,29.4,1,8.1,19.6,27.5,23.1,37.4,1.6,4.7.9,6.4-1.8,10.4l-63,62.2-6.3-.4c-7.9-4-31.1-24.2-38.2-24.5-3.9-.2-28.7,12.6-35.4,15.2s-17.6,4.3-21.4,6.8c-1.5,1-2.6,4.2-3.2,5.9-3.2,10.3-4.1,29.1-8.4,37.8-1.6,3.3-5.2,4.9-8.5,5.7-25-1.7-53.4,2.5-78,.1-14.9-1.4-12.8-16.8-15.5-28.4-.9-4-3.4-16.3-5.3-18.8s-29.7-11.3-36.4-14.1c-4.9-2.1-15.9-9.2-19.9-9.9-2-.3-2.6,0-4.3.7-10.1,3.8-24.9,18.8-35.5,23.8-3.2,1.4-5.9.6-8.7-1.1-7.6-4.8-28.8-28.2-36.3-36.2s-16.2-15.9-21.4-22.5-6.4-7.9-3.7-14.7c3.4-8.5,22.7-29.2,23-36.4.2-4.1-9.2-19.3-11.6-24.7-2.6-6-8.4-26.7-11.5-29.9-4.2-4.4-34.9-6.9-43.5-10.7-4.5-2-7.1-4.4-8.1-9.4,1.7-26.5-2.5-56.3-.1-82.3.6-7,3-7.4,9.1-9.6,8.9-3.2,37-6.2,42.1-10.6,2.9-2.5,13.9-32.7,16.8-39.2,2.8-6.2,8.9-11.7,6.2-19l-23.1-36.3c-1.8-4.4,1.1-7.6,3.4-10.9l59.4-59.2c3-.7,5.9-.5,8.8.6,8.5,3.2,23.4,18.9,32.9,24.2,2.1,1.1,3.9,2.4,6.4,2.5,4.3.2,21.8-10.2,28-12.7,6.1-2.4,25.7-7,28.6-11,4.2-5.9,5.1-29.8,8.5-38.7,1.7-4.4,4.8-7.4,9.7-7.9,25.1,1.6,53.3-2.4,77.9-.2s11.2,37.7,20.2,47.9c2.8,3.1,23.7,8.6,29.7,11s21.8,11.7,25.2,12.1c2.9.4,4.5-.8,6.8-2.1,8.3-4.7,32.2-26.6,39-26.8s4.1,1.6,5.8,2.5l61.1,61.9c1.1,2.7.4,4.8-.4,7.4-3,9.7-23.4,31.1-23.4,39.3,0,3.9,7.4,15.7,9.4,20.4,3.8,8.9,7.9,24.4,12.2,31.7,1.3,2.3,3.7,3.9,6.1,4.8,9.4,3.4,39,5.6,44.5,11ZM271.8,326.8c-141.8,5.9-219.7,172.1-129.3,283.5,104.6,129,310,54.5,309.6-110.8-.3-95.4-84.2-176.8-180.2-172.8Z" fill="#3c50e0"/>
  <path d="M649.5,624c-22.7-28.5-57.9-62.9-49.1-102.9,13.9-63.3,112.3-55.2,106.2,21.3-1.6,20.3-24.6,51.9-37.9,67.6-2.3,2.8-13.2,15.3-15.4,15.5-1.2,0-2.8-.7-3.7-1.5ZM652.3,505.5c-28,1.1-37.5,40.6-13.1,55,26.7,15.7,52.6-17.7,36.6-42.3-4.5-6.9-15.2-13-23.4-12.7Z" fill="#3c50e0"/>
  <path d="M671,380.2c8.6,1.8,21.1-6.3,21.2,6.9,9.8-11.7,32.5-11.5,41.4,1.2,2.6.4,7.7-5.6,11.2-7.2,16.3-7.4,38.1-.1,40.8,19.2,1.5,10.5,0,19.8,0,29.7,0,10.8,1.6,20.7,0,31.6h-21.8v-47.6c0-.6-1.6-7.2-2-8.3-3.5-9.6-16.1-9.5-21.5-1.4l-.6,57.3h-21.2c-.1,0-1.7-1.6-1.7-1.7v-52.7c0-7.2-10.7-10.2-16.9-7.7-1.6.7-6,5.3-6,6.6v55.6h-21.2c-.1,0-1.7-1.6-1.7-1.7v-79.7Z" fill="#fff"/>
  <path d="M746.6,582v39h-22.9v-112.4h18.9c2.2,0,1.8,7.3,1.7,9.2,11.2-11.2,27.3-13.6,41.7-6.7,21.7,10.3,23.8,43.1,13.1,62.1-10,17.7-37.7,23.7-52.5,8.8ZM760.1,526.1c-3.9.8-12.1,7.1-13.2,10.9-1,3.4-.7,24.7.8,27.3,3.4,5.9,12.5,8.1,18.9,7.3,21.4-2.8,19.5-51-6.5-45.5Z" fill="#fff"/>
  <path d="M597.6,434.1c8.4,3.3,16.6,8.6,26,8.7,10.7.2,19.7-6.6,11.2-16.6-10.9-12.8-35.8-13.4-39.1-36.5-4.3-29.9,20.9-39,46-35.7,1.9.2,14,4.4,14.5,5.2,3.3,4.6-.8,16.6-.1,22.2-7.7-4.3-27.5-11.8-34.4-4-11.3,12.7,18.5,23.3,25.6,28.3,29.4,20.5,12.7,58.3-22.6,58.2-3.9,0-27.1-4.1-27.1-8.5v-21.2Z" fill="#fff"/>
  <path d="M846.4,453.6c-17.2,17.9-52.7,10.9-49.2-17.7,2.9-23.6,29.1-25.3,48-25.9-2.8-17.5-27.8-12-39.6-8.1-2.6-.2-2.2-15.3-.9-18.1s8-4.2,11.3-4.7c21.2-3.6,48.3.9,50.9,26.8,1.7,16.9-1.1,36.5-.1,53.7-.9,2.7-14.9,2.5-17.4,1.7-2.7-.9-3.2-5.3-3.1-7.8ZM845.2,424.9c-.5-.5-13.5,1-15.2,1.4-18.6,4.2-8.1,29.3,10,15.8,6.9-5.1,5.2-9.3,5.2-17.2Z" fill="#fff"/>
  <path d="M869.3,530.4c-3.4-.7-5.4-3.1-8.9-4.3-7.3-2.4-24.6-3.1-19.1,8.8,3.1,6.9,29,8.3,31.4,25.9,1.3,9.1,0,18.4-8,23.9s-27.1,7.2-37.8,4.7c-1.8-.4-10.3-3.3-10.3-4.6v-17.8c8.5,2.2,24.4,9.2,32.5,3.5,9.6-6.8-19.9-17.2-23.7-19.8-19.6-13.4-8.8-41,14.7-43.4,4.3-.4,29.2-.2,29.2,5.1v17.8Z" fill="#fff"/>
  <path d="M981.7,360.7v19.5h18.3v16.6c0,.1-1.6,1.7-1.7,1.7h-16.6v38.4c0,9.3,11.9,8.3,18.3,6.3v17.2c-14.1,5.3-39,3.5-41.3-15.4-.8-6.8,1.7-44.8,0-46.5s-11.2,1.9-12.5-1.9c-.6-1.7-.5-14.2.3-15.4,1.7-2.4,11.4-.3,12.1-1.1s-1.2-13.8.5-16.1c1.1-1.5,19.1-3.2,22.4-3.4Z" fill="#fff"/>
  <path d="M884.2,380.8c.8-2.5,15.9-2.3,18.3-1.2,4,2,1.2,8.7,2.9,12,5-7.6,12.3-13.6,21.8-13.8,8-.2,9.3,1.1,9.8,8.6.4,6.3-1.1,11.7-1.2,17.8-4.8-1.3-8.9-3.8-14.2-3.4s-14.5,5.4-14.5,8.5v50.4c0,.1-1.6,1.7-1.7,1.7h-19.5c-.1,0-1.7-1.6-1.7-1.7v-79.1Z" fill="#fff"/>
  <path d="M845.2,424.9c0,7.9,1.7,12.1-5.2,17.2-18.2,13.5-28.6-11.6-10-15.8,1.7-.4,14.7-1.9,15.2-1.4Z" fill="#fff"/>
</svg>