<?xml version="1.0" encoding="UTF-8"?>
<svg id="Capa_1" xmlns="http://www.w3.org/2000/svg" version="1.1" viewBox="0 0 1000 1000">
  <!-- Generator: Adobe Illustrator 29.1.0, SVG Export Plug-In . SVG Version: 2.1.0 Build 142)  -->
  <path d="M423.4,278.6c-93.4,23-170.4,106.1-190.9,199.6-44.3,202.1,143.7,375.8,341.8,321.4,140.2-38.5,225.8-182.2,192.6-324.6-21.9-94.1-97.7-171.6-190.9-196.4,14-23.4,27.3-47.3,41.3-70.7l53.7,22.2,75.4-28.7c29.3,22.9,56,49,81.8,75.8-6.8,27-17.1,53.1-23.5,80.3l32.8,72.6,69.3,37.3,3.2,44.9c-.7,25.5,1.4,51.3-1.3,76.7l-70.8,40.7-31.7,77.1,26.2,78.3c-11.5,11.4-22.1,23.7-33.6,35.1-13.4,13.3-31.5,32-45.7,43.5-1.9,1.6-4.2,3.8-6.7,3.6l-69.6-25.2-5.2.3-79.5,33.9-34.6,72.3-47.8,3.8c-22.8-.7-45.6-2-68.3-4.9l-35.9-71.5-82.5-35.8h-3.8s-67.7,24.9-67.7,24.9c-2.2.2-6.8-4-8.9-5.7-9.7-8.2-20.2-18.5-29.6-27.4-16.1-15.4-31.7-31.5-46.6-48.1l25.6-78.2-30.3-76c-2.5-3.9-8-4.6-11.6-6.6-20.2-11.3-40-23.3-60.2-34.6-.7-40.8-1.5-81.5,3.3-122.1l65.9-35.3c13.1-24.8,24.3-51.1,36.1-76.7l-24.2-72.4-.3-3.5c1-3.6,27.3-29,32.1-33.6,15.9-15.2,32.9-29.9,50-43.5,25.5,7,49.7,18.6,75.2,25.9l53.6-20.3,40.2,68.3c.9.9.8,2.8,1.2,3.6Z" stroke="#023232" stroke-miterlimit="10"/>
  <path d="M493,47.9c77.4-5.1,142.7,74.6,109.7,148.4-14.8,33.2-42.9,74.5-62,106.7-12,20.3-24.9,45.2-38,64.1-2.6,3.7-3.5,3.8-6.1,0-19.6-35.5-41.4-69.8-61.6-104.9-14.5-25.1-41.3-65-44.8-92.7-8-62.3,41.2-117.4,102.8-121.5ZM497.3,102.7c-64.9,4.5-62.6,99.5-2.5,105,75.7,6.9,72.6-109.8,2.5-105Z" fill="#dc6e26" stroke="#e67e22" stroke-miterlimit="10"/>
  <path d="M328.9,467.7c-2.6,2.7,4.6,6,5.3,10.3,1.2,7.7,1,34.9,0,42.9-1.7,14.7-25.5,12.8-28.6,2.7.7-12.6-2.6-31.5-.2-43.3,1.5-7.4,8.3-8.1,9.2-9.6s.3-5.1,1.5-7.6c4.8-10.2,19.5-8.3,28.8-8.3,0-11.2-1.8-18.9,5.9-28,10.4-12.4,31-13.9,46.2-15s9.1.7,11.7-.2,1.4-5.3,2.8-7.7c2.5-4.4,14.2-2.6,18.9-2.9,40.8-2.6,82.7-1.3,123.5,0,8.3.3,22.6-1.5,29.9.2s7.1,5.8,6.1,10.5c29.9,0,71.1,2,65.5,43,9.4,1.3,23.7-.8,28.9,9.3,1.3,2.4.8,5,1.8,6.8,1.4,2.7,7.5,3.9,8.9,10.5,1.3,6.2,1.1,32.7.3,39.5-1.3,10.9-12,11.3-21,10.2-4.6-.6-7.5-3.4-8.1-8-.7-5.2-.5-43.4.9-46.5s5.4-4.4,4.6-7.2-13.1-1.1-16.1-1.6v249.8c0,6.6-13.2,20.5-20.5,21.4-88.2,4.7-177.3-1.1-265.8.6-9.2,0-24.2-8.7-24.2-18.8v-253c-2.4.4-15.6-.6-16.1,0ZM357,622.2l56.2,26c9.9,7.6,20.9,39.9,29.5,42.5l110.2.5c2,.2,3.5-.4,5.2-1.3,5.9-3,16.7-27,21.7-34.1,11.4-16.3,43-21.9,60.3-32.1s2.5-1.6,3-3.4c.3-29.3-.7-58.2-.7-87.7,0-26.9,3.6-55.8,1.2-82.7-1.6-17.4-12.5-21.5-27.7-23.8-71.9-11.1-158.8-11-230.5-.1-14.3,2.2-27.2,5-28.7,21.8l.2,174.5ZM360,650.9c-1,3.7,0,18.5,0,23.6s5.4,7.7,9.1,8.1c13.3,1.5,29.4-1.2,43,0,2.4-.2,2.7-1.6,2.8-3.8.2-4.3-7-18.1-11.1-20.1-4-2-33.8-10.2-38-10.5-2-.1-5.2.6-5.7,2.6ZM639.4,674.5c1-5.8,0-17.1,0-23.6s-3.3-3.3-4.7-2.7c-11.2,4.3-29.4,5.5-39.6,11-3.7,2-11.5,16.3-11.3,19.4s1.7,3.9,3.5,3.9c13.6-1.2,29.7,1.6,43,0,4.3-.5,8.3-3.8,9.1-8.1ZM372.2,717.7c3.5,3.2,17.7,3.4,22,1.7,6.1-2.5,8.6-13.1,2.1-16.6s-20.9-3.1-24.7-1.8c-5,1.7-2.7,13.6.7,16.7ZM609,701.1c-11.9,2-12.2,15.5-2.8,18.4,3.6,1.1,12.7,1.2,16.4.6,8-1.3,12.6-18,2.3-19.3s-12.3-.3-15.9.3ZM539.4,705.1h-79.5v15.6c0,1.4,3.4,8.3,5.9,8,21-1.5,45,2.1,65.6,0,4.2-.4,8-4,8-8.1v-15.6Z" stroke="#1a1a1a" stroke-miterlimit="10"/>
  <path d="M413.7,747c.6,5.1-3.7,11-8.5,12.4-3.6,1.1-27.6,1.1-31.3,0s-9.2-7.3-8.5-12.4h48.3Z" stroke="#1a1a1a" stroke-miterlimit="10"/>
  <path d="M585.6,747h46.7c4.8,0-2.1,10.8-8,12.4-4.4,1.1-25.8,1.1-30.1,0-5-1.3-9.5-7.1-8.6-12.4Z" stroke="#1a1a1a" stroke-miterlimit="10"/>
  <path d="M617.7,469c8.6,0,14.3,5.8,15.2,14.2,2.1,19.5-.3,45.2,0,65.6.1,11.8,2.5,24.5,1.1,36.5-1.1,9.7-7.5,13.6-16.7,14.5-6.6.7-29.6,1.1-35.4,0-4.5-.9-7.7-9.5-12.9-9.7h-135.5c-4.5.1-10.8,9.6-14.1,10.6-3.3,1-14.9.4-19.2.3s-16.2-.6-21-1.6c-7.2-1.4-11.1-5.7-11.8-12.9-3.1-32.2,2.4-69.4,0-102.1.8-7.6,6.4-14.6,14.5-14.5,78.5.8,157.3-.6,235.7-.8ZM476,480.6h-18.8c-20.5,21.8-41,43.5-61.8,65-2.7,2.8-6.8,7.4-9.7,9.6s-1.4,2.1-3.2,1.6v-16.7c0-3.9,48.9-48.8,54.3-56.4l1.6-3.2h-57.5c-1.1,0-4.3,5.3-3.8,7l.2,96.5c1.3,2.6,4,4.5,6.8,5,9.5-1.1,19.8,2.1,29,1.2,7.8-.8,10-10.6,18.2-11.9l138.7-1.1c6.5-.2,14.8,11.4,19.2,11.9,7.8-1.2,29.7,3.3,33.4-5.5.3-24.8,1.5-49.9.6-74.7,0-2.5-1-4.9-1.2-7.4-.6-11.5,4.5-21.6-11.2-22.1-4.1-.1-7.2,1.1-10.7,1.2-35,.6-70.1-.7-105.1.2l-58.2,58.9c-6.2,3.6-12.9-2.9-9.1-9l48.2-50.1Z" stroke="#1a1a1a" stroke-miterlimit="10"/>
  <path d="M432.8,434.6c6.5-1.9,18.6.8,25.5.9,36.6.7,73.5-1.3,109.9.7,6.2,2.8,4.3,17.1-3.4,17.5h-130.1c-9.1-.6-9.4-17-1.9-19.2Z" stroke="#1a1a1a" stroke-miterlimit="10"/>
  <path d="M568.3,636.2l-135.8.2c-8.1-.9-5.8-15.2,3.3-14h127.9c7.1.8,6.9,8.4,4.6,13.8Z" stroke="#1a1a1a" stroke-miterlimit="10"/>
  <path d="M563.1,648.2c.6.6-2.2,10.2-4.8,9.7h-116.1c-5,.7-8-5.5-9.1-9.7h130Z" stroke="#1a1a1a" stroke-miterlimit="10"/>
  <path d="M553.4,669.7c-1.5,2.4-3,7-5.9,7.5h-97.8c-2.3-.2-4.5-5.5-5.9-7.5h109.6Z" stroke="#1a1a1a" stroke-miterlimit="10"/>
  <path d="M390.4,452.4c-8-7.5,5.5-18.6,11.6-10,5.2,7.4-5.7,15.6-11.6,10Z" stroke="#1a1a1a" stroke-miterlimit="10"/>
</svg>